<svg width="67" height="67" viewBox="0 0 67 67" fill="none" xmlns="http://www.w3.org/2000/svg">
<path d="M33.5 19.5417C33.5 16.5801 32.3235 13.7398 30.2293 11.6456C28.1352 9.55148 25.2949 8.375 22.3333 8.375H5.58331V50.25H25.125C27.3462 50.25 29.4764 51.1324 31.047 52.703C32.6176 54.2736 33.5 56.4038 33.5 58.625M33.5 19.5417V58.625M33.5 19.5417C33.5 16.5801 34.6765 13.7398 36.7706 11.6456C38.8648 9.55148 41.7051 8.375 44.6666 8.375H61.4166V50.25H41.875C39.6538 50.25 37.5236 51.1324 35.953 52.703C34.3823 54.2736 33.5 56.4038 33.5 58.625" stroke="black" stroke-width="4" stroke-linecap="round" stroke-linejoin="round"/>
</svg>
